<?xml version="1.0" standalone="no"?>
<!DOCTYPE svg PUBLIC "-//W3C//DTD SVG 20010904//EN"
 "http://www.w3.org/TR/2001/REC-SVG-20010904/DTD/svg10.dtd">
<svg version="1.0" xmlns="http://www.w3.org/2000/svg"
 width="129.000000pt" height="129.000000pt" viewBox="0 0 129.000000 129.000000"
 preserveAspectRatio="xMidYMid meet">
<metadata>
Created by potrace 1.11, written by Peter Selinger 2001-2013
</metadata>
<g transform="translate(0.000000,129.000000) scale(0.100000,-0.100000)"
fill="#000000" stroke="none">
<path d="M80 645 l0 -645 565 0 565 0 0 645 0 645 -565 0 -565 0 0 -645z m810
183 c0 -75 1 -78 40 -123 22 -25 43 -57 46 -70 9 -36 -25 -88 -64 -100 l-32
-9 0 -81 c0 -126 3 -125 -226 -125 -106 0 -193 4 -204 10 -24 13 -40 69 -40
143 0 41 -4 57 -14 57 -26 0 -65 41 -72 75 -4 25 -1 43 14 67 32 50 243 256
276 268 45 17 78 4 131 -50 27 -28 52 -50 56 -50 4 0 6 14 5 31 -2 21 6 41 22
61 l25 29 18 -28 c14 -21 19 -47 19 -105z"/>
<path d="M830 920 c0 -5 9 -10 21 -10 11 0 17 5 14 10 -3 6 -13 10 -21 10 -8
0 -14 -4 -14 -10z"/>
<path d="M623 520 c-26 -11 -41 -70 -27 -108 13 -36 37 -48 71 -36 26 9 28 14
31 70 3 57 1 61 -23 72 -14 7 -27 12 -28 11 -1 0 -12 -4 -24 -9z"/>
</g>
</svg>
